<?xml version="1.0" encoding="UTF-8"?>
<svg id="Papir" xmlns="http://www.w3.org/2000/svg" xmlns:xlink="http://www.w3.org/1999/xlink" viewBox="0 0 70 93.33">
  <defs>
    <style>
      .cls-1 {
        fill: url(#radial-gradient);
        stroke: #000;
        stroke-linejoin: round;
        stroke-width: .75px;
      }
    </style>
    <radialGradient id="radial-gradient" cx="31.13" cy="48.12" fx="31.13" fy="48.12" r="26.27" gradientUnits="userSpaceOnUse">
      <stop offset="0" stop-color="#9c8c77"/>
      <stop offset="1" stop-color="#4f473c"/>
    </radialGradient>
  </defs>
  <path class="cls-1" d="M10.41,65.94s-.15-19.42-2.14-27.15-.81-8.14,0-8.44,3.15-.25,3.46,2.39,2.59,11.06,5.14,10.02c1.37-.56.1-3.86,0-7.63-.08-2.85-.71-13.27,2.54-13.58s2.69,2.49,2.95,8.9.2,9.46,1.63,9.71,1.22-4.12,1.53-6.61,1.63-9.56,2.19-11.34,1.17-2.69,2.85-2.44,2.59,1.53,2.39,3.56-1.73,12.97-2.24,15.71.25,3.71,1.68.1,3.71-8.95,5.03-11.59,1.98-3.56,3.71-3.05,2.44,2.39,1.73,4.37-5.8,20.24-6.46,22.83,2.24,5.14,5.08,3.36c3.84-2.4,9-6.92,12-5.75s1.02,3.1.2,3.92-1.93,2.29-3.46,4.37-19.88,18.92-19.88,18.92l-19.93-10.58Z"/>
</svg>