<?xml version="1.0" encoding="UTF-8"?>
<svg id="Layer_4" xmlns="http://www.w3.org/2000/svg" xmlns:xlink="http://www.w3.org/1999/xlink" viewBox="0 0 70 93.33">
  <defs>
    <style>
      .cls-1, .cls-2 {
        fill: none;
      }

      .cls-1, .cls-2, .cls-3 {
        stroke: #000;
        stroke-linejoin: round;
        stroke-width: .75px;
      }

      .cls-2 {
        stroke-linecap: round;
      }

      .cls-4, .cls-3 {
        fill: url(#radial-gradient);
      }

      .cls-5 {
        fill: url(#radial-gradient-3);
      }

      .cls-6 {
        fill: url(#radial-gradient-2);
      }
    </style>
    <radialGradient id="radial-gradient" cx="33.35" cy="44.52" fx="33.35" fy="44.52" r="25.83" gradientUnits="userSpaceOnUse">
      <stop offset="0" stop-color="#9c8c77"/>
      <stop offset="1" stop-color="#4f473c"/>
    </radialGradient>
    <radialGradient id="radial-gradient-2" cx="18.4" cy="36.99" fx="18.4" fy="36.99" r="3.01" xlink:href="#radial-gradient"/>
    <radialGradient id="radial-gradient-3" cx="26" cy="34" fx="26" fy="34" r="2.28" xlink:href="#radial-gradient"/>
  </defs>
  <g>
    <path class="cls-4" d="M26.37,30.79s-6.16-2.63-8.1,1.95c0,0-11.98,1.32-6.98,21.97l23.25,17.96s15.72-16.33,17.25-18.42,2.64-3.56,3.46-4.37,2.8-2.75-.2-3.92-8.16,3.35-12,5.75c-2.85,1.78-5.75-.76-5.08-3.36s5.75-20.85,6.46-22.83,0-3.86-1.73-4.37-2.39.41-3.71,3.05-3.61,7.98-5.03,11.59-2.19,2.64-1.68-.1,2.03-13.68,2.24-15.71-.71-3.31-2.39-3.56-2.29.66-2.85,2.44l-2.89,11.93Z"/>
    <g>
      <line class="cls-4" x1="18.53" y1="41.25" x2="18.26" y2="32.74"/>
      <line class="cls-4" x1="18.53" y1="41.25" x2="18.26" y2="32.74"/>
    </g>
    <g>
      <line class="cls-4" x1="26.37" y1="30.79" x2="25.63" y2="37.2"/>
      <line class="cls-4" x1="26.37" y1="30.79" x2="25.63" y2="37.2"/>
    </g>
  </g>
  <g>
    <path class="cls-3" d="M26.37,30.79s-6.16-2.63-8.1,1.95c0,0-11.98,1.32-6.98,21.97l23.25,17.96s15.72-16.33,17.25-18.42,2.64-3.56,3.46-4.37,2.8-2.75-.2-3.92-8.16,3.35-12,5.75c-2.85,1.78-5.75-.76-5.08-3.36s5.75-20.85,6.46-22.83,0-3.86-1.73-4.37-2.39.41-3.71,3.05-3.61,7.98-5.03,11.59-2.19,2.64-1.68-.1,2.03-13.68,2.24-15.71-.71-3.31-2.39-3.56-2.29.66-2.85,2.44l-2.89,11.93Z"/>
    <g>
      <line class="cls-6" x1="18.53" y1="41.25" x2="18.26" y2="32.74"/>
      <line class="cls-2" x1="18.53" y1="41.25" x2="18.26" y2="32.74"/>
    </g>
    <g>
      <line class="cls-5" x1="26.37" y1="30.79" x2="25.63" y2="37.2"/>
      <line class="cls-2" x1="26.37" y1="30.79" x2="25.63" y2="37.2"/>
    </g>
  </g>
  <g>
    <path class="cls-1" d="M26.37,30.79s-6.16-2.63-8.1,1.95c0,0-11.98,1.32-6.98,21.97l23.25,17.96s15.72-16.33,17.25-18.42,2.64-3.56,3.46-4.37,2.8-2.75-.2-3.92-8.16,3.35-12,5.75c-2.85,1.78-5.75-.76-5.08-3.36s5.75-20.85,6.46-22.83,0-3.86-1.73-4.37-2.39.41-3.71,3.05-3.61,7.98-5.03,11.59-2.19,2.64-1.68-.1,2.03-13.68,2.24-15.71-.71-3.31-2.39-3.56-2.29.66-2.85,2.44l-2.89,11.93Z"/>
    <g>
      <line class="cls-1" x1="18.53" y1="41.25" x2="18.26" y2="32.74"/>
      <line class="cls-1" x1="18.53" y1="41.25" x2="18.26" y2="32.74"/>
    </g>
    <g>
      <line class="cls-1" x1="26.37" y1="30.79" x2="25.63" y2="37.2"/>
      <line class="cls-1" x1="26.37" y1="30.79" x2="25.63" y2="37.2"/>
    </g>
  </g>
</svg>