<?xml version="1.0" encoding="UTF-8"?>
<svg id="Layer_1" xmlns="http://www.w3.org/2000/svg" xmlns:xlink="http://www.w3.org/1999/xlink" viewBox="0 0 37.98 40.96">
  <defs>
    <style>
      .cls-1 {
        fill: none;
        stroke-linecap: round;
        stroke-miterlimit: 10;
      }

      .cls-1, .cls-2 {
        stroke: #000;
        stroke-width: .75px;
      }

      .cls-2 {
        fill: url(#radial-gradient);
        stroke-linejoin: round;
      }
    </style>
    <radialGradient id="radial-gradient" cx="18.99" cy="20.48" fx="18.99" fy="20.48" r="19.37" gradientUnits="userSpaceOnUse">
      <stop offset="0" stop-color="#9c8c77"/>
      <stop offset="1" stop-color="#4f473c"/>
    </radialGradient>
  </defs>
  <path class="cls-2" d="M.55,22.98c-.21-1.91-1.45-16.38,7.72-16.87.18,0,.35-.11.43-.28.57-1.2,3.15-5.91,7.87-3.74.19.09.41.06.56-.08.76-.75,3.33-2.84,6.38-.49.17.13.4.16.58.04,1.34-.89,6.94-4,7.62,5.76.02.24.19.43.42.47.92.15,3.16.91,3.61,4.89.57,5.03.95,4.73,1.56,7.06s1.85,6.88-13.38,20.73c-.18.16-.45.18-.65.03L.74,23.32c-.11-.08-.18-.2-.19-.34Z"/>
  <line class="cls-1" x1="17.23" y1="11.83" x2="16.87" y2="2.14"/>
  <path class="cls-1" d="M24.06,12.02c-.27-6.94-.27-10.18-.27-10.18"/>
  <line class="cls-1" x1="8.92" y1="13.16" x2="8.57" y2="5.99"/>
  <path class="cls-1" d="M33.18,21.51c-.99-1.53-1.11-2.06-1.07-3.13s-.29-10.79-.29-10.79"/>
</svg>