<?xml version="1.0" encoding="UTF-8"?>
<svg id="Layer_2" xmlns="http://www.w3.org/2000/svg" viewBox="0 0 153.07 153.07">
  <defs>
    <style>
      .cls-1 {
        fill: #819daa;
      }
    </style>
  </defs>
  <g id="SøkeTegn">
    <path class="cls-1" d="M10.98,10.98c-14.64,14.64-14.64,38.39,0,53.03s38.39,14.64,53.03,0c14.64-14.64,14.65-38.38,0-53.03s-38.39-14.64-53.03,0ZM55.18,55.18c-9.76,9.76-25.59,9.76-35.36,0-9.76-9.76-9.76-25.59,0-35.36,9.76-9.76,25.59-9.76,35.36,0,9.76,9.76,9.76,25.59,0,35.36Z"/>
    <path class="cls-1" d="M55.18,55.18c-2.08,2.08-4.42,3.71-6.93,4.9-4.28,2.03-5.16,7.76-1.81,11.11l79.85,79.85c2.71,2.71,7.1,2.71,9.81,0l14.94-14.94c2.71-2.71,2.71-7.1,0-9.81L71.18,46.44c-3.35-3.35-9.07-2.47-11.11,1.81-1.19,2.51-2.83,4.86-4.9,6.93Z"/>
  </g>
</svg>