<?xml version="1.0" encoding="utf-8"?>
<!-- Generator: Adobe Illustrator 27.7.0, SVG Export Plug-In . SVG Version: 6.00 Build 0)  -->
<svg version="1.1" id="Layer_1" xmlns="http://www.w3.org/2000/svg" xmlns:xlink="http://www.w3.org/1999/xlink" x="0px" y="0px"
	 viewBox="0 0 2048 2048" style="enable-background:new 0 0 2048 2048;" xml:space="preserve">
<style type="text/css">
	.st0{fill:#FFFFFF;}
</style>
<g>
	<path class="st0" d="M1104.83,866.08c0,117.23-38.94,215.83-116.79,295.83c-14.24,14.63-29.05,27.9-44.39,39.85
		c3.74,83.91,29.66,158.35,77.53,223.41c47-27.56,91.13-61.87,132.27-103.26c123.14-123.88,184.71-275.27,184.71-454.17
		c0-33.54-2.17-66.13-6.48-97.77c-86.49,6.15-162.18,34.33-227.1,84.49C1104.68,858.34,1104.83,862.18,1104.83,866.08z"/>
	<path class="st0" d="M705.25,1281.92c-97.88,0-184.64-30.83-260.26-92.5C347.66,1110.54,299,1003.31,299,867.75
		c0-121.67,38.65-221.94,115.95-300.83c77.29-78.88,172.67-118.33,286.13-118.33c112.33,0,207.71,40.42,286.12,121.25
		c16.47,16.98,31.1,34.79,44.11,53.35c68.04-38.7,143.34-63.87,225.94-75.47c-28.14-49.59-63.45-96.02-106.3-139.13
		c-124.81-125.54-273.94-188.33-447.37-188.33c-114.53,0-221.41,28.75-320.62,86.25c-99.23,57.5-177.2,135.42-233.91,233.75
		C92.34,638.58,64,746.37,64,863.58c0,175,60.87,326.12,182.62,453.33c121.75,127.23,274.62,190.83,458.63,190.83
		c30.17,0,59.51-1.96,88.13-5.62c-38.67-69.77-63.92-143.27-75.72-220.5C713.53,1281.75,709.43,1281.92,705.25,1281.92z"/>
	<path class="st0" d="M1065.35,888.58c12.59-12.36,25.71-23.66,39.23-34.11c-1.99-87.35-26.41-164.45-73.27-231.29
		c-59.02,33.56-112.58,77.28-160.65,131.23c-107.23,120-160.83,261.12-160.83,423.33c0,35.35,2.65,69.97,7.83,103.88
		c85.28-2.35,160.63-28.92,225.99-79.87c-0.32-7.11-0.49-14.28-0.49-21.52C943.17,1065.81,983.9,968.58,1065.35,888.58z"/>
	<path class="st0" d="M1982.33,1175.25h-616.67v219.17h355c-33.94,72.23-78.55,125.29-133.89,159.17
		c-55.34,33.89-123.33,50.83-203.97,50.83c-124.02,0-228.3-41.11-312.84-123.33c-18.27-17.77-34.45-36.45-48.77-55.91
		c-69.52,40.77-145.45,66.44-227.8,76.96c1.19,2.15,2.32,4.31,3.53,6.45c58.04,102.23,136.94,180.98,236.67,236.25
		c99.71,55.27,213.19,82.92,340.42,82.92c118.88,0,222.5-25.29,310.83-75.83c88.33-50.54,160.27-123.88,215.83-220
		c55.54-96.11,83.33-197.77,83.33-305L1982.33,1175.25z"/>
	<path class="st0" d="M1368.54,768.58c138.45,0,259.66,55,363.65,165l164.31-162.5c-75-81.11-151.67-138.33-230-171.67
		c-92.79-39.44-192.5-59.17-299.17-59.17c-38.03,0-74.72,2.5-110.08,7.46c38.59,68.02,63.51,142.06,74.43,222.26
		C1343.78,769.12,1356.03,768.58,1368.54,768.58z"/>
</g>
</svg>
