<?xml version="1.0" encoding="UTF-8"?>
<svg id="Layer_2" data-name="Layer 2" xmlns="http://www.w3.org/2000/svg" viewBox="0 0 568.88 544.39">
  <defs>
    <style>
      .cls-1 {
        fill: #231f20;
      }

      .cls-2 {
        stroke: #231f20;
        stroke-miterlimit: 10;
      }

      .cls-3 {
        fill: #daabcf;
      }

      .cls-4 {
        fill: #e9b0d0;
      }

      .cls-5 {
        fill: #db9ec7;
      }
    </style>
  </defs>
  <g id="GrisEksemplat">
    <path id="_øre" data-name="øre" class="cls-3" d="M456.07,82.62l65.26-19.01c29.85-8.7,56.51,20.99,44.67,49.74l-37.15,80.02-72.79-110.74Z"/>
    <path id="kropp" class="cls-4" d="M541.59,275.85c-8.37,73.25-51.88,134.81-113.93,172.86-29.07,17.83-62.21,30.49-97.72,36.78-8.42,1.49-16.98,2.63-25.65,3.38-13.41,1.17-24.15,11.59-25.68,24.96l-.63,5.5c-1.77,15.52-15.79,26.66-31.3,24.89l-44.18-5.04c-15.52-1.77-26.66-15.79-24.89-31.3l1.35-11.85c1.43-12.51-5.6-24.42-17.2-29.3-.14-.06-.28-.12-.42-.18-12.68-5.35-27.36-.7-34.74,10.9l-.6.94c-8.39,13.17-25.86,17.05-39.03,8.67l-37.52-23.88c-13.18-8.38-17.06-25.86-8.67-39.04l.23-.36c10.86-17.06,10.37-38.87-.91-55.66C9.95,323.21-4.9,269.67,1.44,214.15,16.77,79.93,150.12-15.06,299.27,1.98c149.16,17.04,257.65,139.66,242.32,273.87Z"/>
    <path id="fot" class="cls-3" d="M405.58,520.01l-41.99,4.4c-16.15,1.69-30.61-10.02-32.31-26.17l-1.34-12.75c35.51-6.29,68.65-18.95,97.72-36.78l4.09,38.99c1.69,16.15-10.02,30.62-26.18,32.31Z"/>
    <path class="cls-1" d="M254.55,9.83c39.95-3.81,79.21,10.58,111.6,33.31,9.49,6.65,18.53,13.96,26.84,22.06.97.99,2.7,2.65,3.72,3.8,3.43,3.74,3.18,9.56-.56,12.99s-9.56,3.18-12.99-.56c-.78-.95-2.27-2.62-3.17-3.61-3.06-3.34-6.27-6.55-9.6-9.65-8.92-8.33-18.6-15.92-28.85-22.56-17.9-11.61-37.9-20.21-58.95-23.91-2.19-.35-4.58-.67-6.78-1-1.59-.16-5.23-.48-6.83-.64-2.49-.08-6.66-.35-9.15-.25,0,0-4.58.06-4.58.06h-.29c-6.45-.1-6.87-9.37-.4-10.03h0Z"/>
    <g id="Snute">
      <ellipse id="snute" class="cls-5" cx="418.64" cy="306.55" rx="91.75" ry="70.47" transform="translate(-8.56 12.05) rotate(-1.63)"/>
      <ellipse id="neseBor" class="cls-1" cx="459.84" cy="306.05" rx="14.95" ry="9.46" transform="translate(28.01 650.49) rotate(-72.22)"/>
      <ellipse id="neseBor-2" data-name="neseBor" class="cls-1" cx="393.32" cy="309.94" rx="9.46" ry="14.95" transform="translate(-86.26 165.84) rotate(-21.51)"/>
    </g>
    <path id="_øre-2" data-name="øre" class="cls-3" d="M335.53,100.4l-49.94-46.11c-22.84-21.09-59.94-6.41-62.16,24.6l-2.42,88.19,114.52-66.67Z"/>
    <g id="_Øyne" data-name="Øyne">
      <ellipse id="_øye" data-name="øye" class="cls-1" cx="477.6" cy="193.36" rx="16.47" ry="13.12" transform="translate(-36.73 162.38) rotate(-18.59)"/>
      <ellipse id="_øye-2" data-name="øye" class="cls-1" cx="335.53" cy="186.15" rx="13.12" ry="16.47" transform="translate(68.84 462.03) rotate(-74.99)"/>
    </g>
    <path class="cls-2" d="M446.94,417.37l-1.82.13c-1.19.09-2.27-.7-2.55-1.86-1.05-4.24-1.72-7.21-2.09-9.82-.21-1.53-1.78-2.46-3.23-1.95-15.08,5.33-45.35,7.72-92.18-12.06-1.04-.44-2.26-.12-2.93.8-2.87,3.94-6.68,7.55-11.45,10.67-.59.39-1.33.49-2.01.29h0c-1.94-.56-2.4-3.07-.8-4.31,9-6.95,13.86-15.89,14.66-25.33.13-1.52,1.66-2.52,3.12-2.1l1.19.34c1.11.32,1.84,1.36,1.78,2.51-.17,3.03-.75,6.02-1.76,8.92-.42,1.22.16,2.57,1.35,3.06,49.22,20.62,80.09,14.65,94.01,8.79.61-.26,1.07-.77,1.31-1.38.92-2.37,2.14-4.72,3.65-7.15.41-.66,1.12-1.08,1.9-1.14l.82-.06c1.93-.14,3.23,1.91,2.32,3.62-4.09,7.63-5.21,14.88-3.1,25.07.3,1.46-.73,2.85-2.22,2.96Z"/>
  </g>
</svg>