<?xml version="1.0" encoding="UTF-8"?>
<svg id="Layer_2" data-name="Layer 2" xmlns="http://www.w3.org/2000/svg" viewBox="0 0 2048 2048">
  <defs>
    <style>
      .cls-1 {
        fill: #808285;
      }

      .cls-2 {
        fill: #bcbec0;
      }

      .cls-3 {
        fill: #6d6e71;
      }

      .cls-4 {
        fill: #939598;
      }

      .cls-5 {
        fill: #414042;
      }

      .cls-6 {
        fill: #e6e7e8;
      }
    </style>
  </defs>
  <polygon class="cls-3" points="349.04 461.87 1251.29 347.11 1287.67 360.06 367.53 482.09 396.82 1163.04 378.09 1127.67 349.04 461.87"/>
  <polygon class="cls-1" points="367.53 482.09 396.82 1163.04 1353.57 1024 1287.67 360.06 367.53 482.09"/>
  <polygon class="cls-4" points="1353.57 1024 396.82 1163.04 833.7 1551.11 1863.67 1343.65 1353.57 1024"/>
  <polygon class="cls-1" points="828.82 1612.12 1863.67 1399.79 1863.67 1343.65 833.7 1551.11 828.82 1612.12"/>
  <polygon class="cls-3" points="396.82 1163.04 396.82 1236.26 828.82 1612.12 833.7 1551.11 396.82 1163.04"/>
  <polygon class="cls-5" points="411.17 506.82 437.86 1127.51 1309.94 1000.77 1249.87 395.59 411.17 506.82"/>
  <polygon class="cls-2" points="1361.2 1060.23 502.23 1201.79 702.56 1372.7 1590.79 1210.49 1361.2 1060.23"/>
  <g>
    <polygon class="cls-6" points="940.79 1142.44 882.39 1149.97 906.36 1171.99 967.11 1161.07 940.79 1142.44"/>
    <polygon class="cls-6" points="868.81 1154.82 810.4 1162.35 834.38 1184.37 895.12 1173.45 868.81 1154.82"/>
    <polygon class="cls-6" points="796.94 1167.18 738.53 1174.71 762.5 1196.72 823.25 1185.81 796.94 1167.18"/>
    <polygon class="cls-6" points="725.03 1179.54 666.63 1187.07 690.6 1209.09 751.35 1198.17 725.03 1179.54"/>
    <polygon class="cls-6" points="653.07 1191.91 594.67 1199.44 618.64 1221.46 679.39 1210.54 653.07 1191.91"/>
    <polygon class="cls-6" points="581.2 1204.27 522.79 1211.8 546.77 1233.82 607.51 1222.9 581.2 1204.27"/>
    <polygon class="cls-6" points="1012.66 1130.09 954.26 1137.62 978.23 1159.63 1038.98 1148.72 1012.66 1130.09"/>
    <polygon class="cls-6" points="1372.26 1068.26 1313.85 1075.79 1337.82 1097.81 1398.57 1086.89 1372.26 1068.26"/>
    <polygon class="cls-6" points="1300.38 1080.62 1241.98 1088.15 1265.95 1110.16 1326.7 1099.25 1300.38 1080.62"/>
    <polygon class="cls-6" points="1228.42 1092.99 1170.02 1100.52 1193.99 1122.54 1254.74 1111.62 1228.42 1092.99"/>
    <polygon class="cls-6" points="1156.52 1105.35 1098.11 1112.88 1122.08 1134.9 1182.83 1123.98 1156.52 1105.35"/>
    <polygon class="cls-6" points="1084.65 1117.71 1026.24 1125.24 1050.21 1147.26 1110.96 1136.34 1084.65 1117.71"/>
  </g>
  <g>
    <polygon class="cls-6" points="976.73 1170.94 918.32 1178.48 942.29 1200.49 1003.04 1189.57 976.73 1170.94"/>
    <polygon class="cls-6" points="904.74 1183.32 846.34 1190.85 870.31 1212.87 931.06 1201.95 904.74 1183.32"/>
    <polygon class="cls-6" points="832.87 1195.68 774.47 1203.21 798.44 1225.23 859.19 1214.31 832.87 1195.68"/>
    <polygon class="cls-6" points="760.96 1208.04 702.56 1215.57 726.53 1237.59 787.28 1226.67 760.96 1208.04"/>
    <polygon class="cls-6" points="689.01 1220.41 630.6 1227.95 654.58 1249.96 715.32 1239.04 689.01 1220.41"/>
    <polygon class="cls-6" points="617.13 1232.77 558.73 1240.3 582.7 1262.32 643.45 1251.4 617.13 1232.77"/>
    <polygon class="cls-6" points="1048.59 1158.59 990.19 1166.12 1014.16 1188.14 1074.91 1177.22 1048.59 1158.59"/>
    <polygon class="cls-6" points="1408.19 1096.76 1349.78 1104.29 1373.76 1126.31 1434.5 1115.39 1408.19 1096.76"/>
    <polygon class="cls-6" points="1336.31 1109.12 1277.91 1116.65 1301.88 1138.67 1362.63 1127.75 1336.31 1109.12"/>
    <polygon class="cls-6" points="1264.35 1121.49 1205.95 1129.02 1229.92 1151.04 1290.67 1140.12 1264.35 1121.49"/>
    <polygon class="cls-6" points="1192.45 1133.85 1134.05 1141.39 1158.02 1163.4 1218.77 1152.48 1192.45 1133.85"/>
    <polygon class="cls-6" points="1120.58 1146.21 1062.17 1153.74 1086.15 1175.76 1146.89 1164.84 1120.58 1146.21"/>
  </g>
  <g>
    <polygon class="cls-6" points="1019.09 1201.85 960.68 1209.39 984.65 1231.4 1045.4 1220.49 1019.09 1201.85"/>
    <polygon class="cls-6" points="947.1 1214.23 888.7 1221.77 912.67 1243.78 973.42 1232.86 947.1 1214.23"/>
    <polygon class="cls-6" points="875.23 1226.59 816.83 1234.12 840.8 1256.14 901.55 1245.22 875.23 1226.59"/>
    <polygon class="cls-6" points="803.32 1238.95 744.92 1246.49 768.89 1268.5 829.64 1257.58 803.32 1238.95"/>
    <polygon class="cls-6" points="731.37 1251.32 672.96 1258.86 696.94 1280.87 757.68 1269.96 731.37 1251.32"/>
    <polygon class="cls-6" points="659.49 1263.68 601.09 1271.22 625.06 1293.23 685.81 1282.31 659.49 1263.68"/>
    <polygon class="cls-6" points="1090.95 1189.5 1032.55 1197.03 1056.52 1219.05 1117.27 1208.13 1090.95 1189.5"/>
    <polygon class="cls-6" points="1450.55 1127.67 1392.14 1135.2 1416.12 1157.22 1476.86 1146.3 1450.55 1127.67"/>
    <polygon class="cls-6" points="1378.67 1140.03 1320.27 1147.56 1344.24 1169.58 1404.99 1158.66 1378.67 1140.03"/>
    <polygon class="cls-6" points="1306.72 1152.4 1248.31 1159.93 1272.28 1181.95 1333.03 1171.03 1306.72 1152.4"/>
    <polygon class="cls-6" points="1234.81 1164.76 1176.41 1172.3 1200.38 1194.31 1261.13 1183.4 1234.81 1164.76"/>
    <polygon class="cls-6" points="1162.94 1177.12 1104.53 1184.65 1128.51 1206.67 1189.26 1195.75 1162.94 1177.12"/>
  </g>
  <g>
    <polygon class="cls-6" points="1061.45 1232.77 1003.04 1240.3 1027.01 1262.32 1087.76 1251.4 1061.45 1232.77"/>
    <polygon class="cls-6" points="989.46 1245.14 931.06 1252.68 955.03 1274.69 1015.78 1263.78 989.46 1245.14"/>
    <polygon class="cls-6" points="917.59 1257.5 859.19 1265.03 883.16 1287.05 943.91 1276.13 917.59 1257.5"/>
    <polygon class="cls-6" points="845.68 1269.86 787.28 1277.4 811.25 1299.41 872 1288.5 845.68 1269.86"/>
    <polygon class="cls-6" points="773.73 1282.24 715.32 1289.77 739.3 1311.79 800.04 1300.87 773.73 1282.24"/>
    <polygon class="cls-6" points="701.85 1294.59 643.45 1302.13 667.42 1324.14 728.17 1313.23 701.85 1294.59"/>
    <polygon class="cls-6" points="1133.31 1220.41 1074.91 1227.94 1098.88 1249.96 1159.63 1239.04 1133.31 1220.41"/>
    <polygon class="cls-6" points="1492.91 1158.58 1434.5 1166.12 1458.48 1188.13 1519.23 1177.22 1492.91 1158.58"/>
    <polygon class="cls-6" points="1421.03 1170.94 1362.63 1178.47 1386.6 1200.49 1447.35 1189.57 1421.03 1170.94"/>
    <polygon class="cls-6" points="1349.08 1183.31 1290.67 1190.85 1314.64 1212.86 1375.39 1201.95 1349.08 1183.31"/>
    <polygon class="cls-6" points="1277.17 1195.68 1218.77 1203.21 1242.74 1225.23 1303.49 1214.31 1277.17 1195.68"/>
    <polygon class="cls-6" points="1205.3 1208.03 1146.89 1215.57 1170.87 1237.58 1231.62 1226.67 1205.3 1208.03"/>
  </g>
  <g>
    <polygon class="cls-6" points="738.35 1324.07 679.34 1332.28 703.71 1355.16 765.07 1343.4 738.35 1324.07"/>
    <polygon class="cls-6" points="1538.2 1181.86 1479.2 1190.07 1503.56 1212.95 1564.92 1201.19 1538.2 1181.86"/>
    <polygon class="cls-6" points="1277.04 1228.44 940.51 1285.7 964.87 1308.58 1303.76 1247.77 1277.04 1228.44"/>
  </g>
  <polygon class="cls-6" points="803.32 1310.73 744.92 1318.27 768.89 1340.28 829.64 1329.36 803.32 1310.73"/>
  <polygon class="cls-6" points="875.23 1297.01 816.83 1304.54 840.8 1326.56 901.55 1315.64 875.23 1297.01"/>
  <polygon class="cls-6" points="1463.39 1195.68 1404.99 1203.21 1428.96 1225.23 1489.71 1214.31 1463.39 1195.68"/>
  <polygon class="cls-6" points="1378.67 1210.45 1320.27 1217.98 1344.24 1240 1404.99 1229.08 1378.67 1210.45"/>
  <polygon class="cls-2" points="1167.68 1442.54 1419.41 1388.86 1313.72 1294.97 1064.54 1345.16 1167.68 1442.54"/>
</svg>